<svg version="1.1" baseProfile="full" xmlns="http://www.w3.org/2000/svg" xmlns:xlink="http://www.w3.org/1999/xlink" xmlns:ev="http://www.w3.org/2001/xml-events" xml:space="preserve" x="0px" y="0px" width="40px" height="40px" viewBox="0 0 40 40" preserveAspectRatio="none" shape-rendering="geometricPrecision">"<path fill="#000000" d="M15.75,29 C15.75,29.8341316 16.4176441,30.5 17.25,30.5 C18.0841316,30.5 18.75,29.8323559 18.75,29 C18.75,28.1658684 18.0823559,27.5 17.25,27.5 C16.4158684,27.5 15.75,28.1676441 15.75,29 Z M13.75,29 C13.75,27.0642652 15.3101048,25.5 17.25,25.5 C19.1857348,25.5 20.75,27.0601048 20.75,29 C20.75,30.9357348 19.1898952,32.5 17.25,32.5 C15.3142652,32.5 13.75,30.9398952 13.75,29 Z M24.5,29 C24.5,29.8341316 25.1676441,30.5 26,30.5 C26.8341316,30.5 27.5,29.8323559 27.5,29 C27.5,28.1658684 26.8323559,27.5 26,27.5 C25.1658684,27.5 24.5,28.1676441 24.5,29 Z M22.5,29 C22.5,27.0642652 24.0601048,25.5 26,25.5 C27.9357348,25.5 29.5,27.0601048 29.5,29 C29.5,30.9357348 27.9398952,32.5 26,32.5 C24.0642652,32.5 22.5,30.9398952 22.5,29 Z M10.2792408,11 L7,11 C6.44771525,11 6,10.5522847 6,10 C6,9.44771525 6.44771525,9 7,9 L11,9 C11.4304304,9 11.8125693,9.27543009 11.9486833,9.68377223 L15.9486926,21.6838002 C15.9549468,21.7025646 16.0266233,21.9212928 16.0537763,22 L27.8831312,22 C27.9306012,21.9202495 27.9978143,21.7887072 28.0861885,21.5938615 L31.0716486,14.8765762 C31.3367318,14.2801391 31.1536266,14 30.4971771,14 L15,14 C14.4477153,14 14,13.5522847 14,13 C14,12.4477153 14.4477153,12 15,12 L30.4971771,12 C32.5981619,12 33.7533006,13.7672881 32.8992717,15.6888531 L29.9107401,22.4129801 C29.4108531,23.5153748 28.952801,24 28,24 L16,24 C14.986504,24 14.4621187,23.521119 14.1532219,22.6236671 C14.129786,22.5555777 14.0534057,22.3224955 14.0513167,22.3162278 L10.2792408,11 Z"/></svg>