<svg version="1.1" baseProfile="full" xmlns="http://www.w3.org/2000/svg" xmlns:xlink="http://www.w3.org/1999/xlink" xmlns:ev="http://www.w3.org/2001/xml-events" xml:space="preserve" x="0px" y="0px" width="40px" height="40px" viewBox="0 0 40 40" preserveAspectRatio="none" shape-rendering="geometricPrecision">"<path fill="#ffffff" d="M15.55 29c0 .945.757 1.7 1.7 1.7.945 0 1.7-.757 1.7-1.7 0-.945-.757-1.7-1.7-1.7-.945 0-1.7.757-1.7 1.7zm-1.6 0c0-1.825 1.47-3.3 3.3-3.3 1.825 0 3.3 1.47 3.3 3.3 0 1.825-1.47 3.3-3.3 3.3-1.825 0-3.3-1.47-3.3-3.3zm10.35 0c0 .945.757 1.7 1.7 1.7.945 0 1.7-.757 1.7-1.7 0-.945-.757-1.7-1.7-1.7-.945 0-1.7.757-1.7 1.7zm-1.6 0c0-1.825 1.47-3.3 3.3-3.3 1.825 0 3.3 1.47 3.3 3.3 0 1.825-1.47 3.3-3.3 3.3-1.825 0-3.3-1.47-3.3-3.3zM10.423 10.8H7a.8.8 0 1 1 0-1.6h4a.8.8 0 0 1 .759.547l4.019 12.066c.077.323.118.438.12.44-.044-.05-.052-.053.102-.053h11.892c.089-.134.272-.41.412-.604l2.95-6.638c.324-.73.044-1.158-.757-1.158H15a.8.8 0 1 1 0-1.6h15.497c1.957 0 3.015 1.619 2.22 3.408l-2.986 6.717-.093.158c-.13.17-.472.7-.56.808-.276.337-.624.509-1.078.509H16c-1.103 0-1.498-.45-1.759-1.547L10.423 10.8z"/></svg>