<?xml version="1.0" encoding="utf-8"?>
<svg version="1.1" baseProfile="full" xmlns="http://www.w3.org/2000/svg" xmlns:xlink="http://www.w3.org/1999/xlink" xmlns:ev="http://www.w3.org/2001/xml-events" xml:space="preserve" x="0px" y="0px" width="40px" height="40px"  viewBox="0 0 40px 40px" preserveAspectRatio="none" shape-rendering="geometricPrecision">"<path xmlns="http://www.w3.org/2000/svg" fill="rgb(255, 255, 255)" d="M26.8858151,25.4716016 L29.7071068,28.2928932 C30.0976311,28.6834175 30.0976311,29.3165825 29.7071068,29.7071068 C29.3165825,30.0976311 28.6834175,30.0976311 28.2928932,29.7071068 L25.4715624,26.885776 C23.839103,28.2077492 21.7608075,29 19.5,29 C14.2564176,29 10,24.7402784 10,19.5 C10,14.2564176 14.2597216,10 19.5,10 C24.7435824,10 29,14.2597216 29,19.5 C29,21.7616124 28.2075692,23.8395837 26.8858151,25.4716016 Z M12,19.5 C12,23.6360561 15.3613347,27 19.5,27 C23.6360561,27 27,23.6386653 27,19.5 C27,15.3639439 23.6386653,12 19.5,12 C15.3639439,12 12,15.3613347 12,19.5 Z"/></svg>