<svg xmlns="http://www.w3.org/2000/svg" xmlns:xlink="http://www.w3.org/1999/xlink" width="24" height="25" viewBox="0 0 24 25"><defs><path id="a" d="M1067 4499.9c3.26 0 3.67.01 4.95.07 1.28.06 2.15.26 2.91.56.8.3 1.46.72 2.13 1.38a5.92 5.92 0 0 1 1.38 2.13c.3.76.5 1.63.56 2.9.06 1.29.07 1.7.07 4.96 0 3.25-.01 3.66-.07 4.94a8.77 8.77 0 0 1-.56 2.91c-.3.8-.72 1.46-1.38 2.13a5.88 5.88 0 0 1-2.13 1.39c-.76.29-1.64.5-2.91.55-1.28.06-1.7.08-4.95.08-3.26 0-3.67-.02-4.95-.08a8.77 8.77 0 0 1-2.9-.55 5.88 5.88 0 0 1-2.14-1.39 5.88 5.88 0 0 1-1.38-2.13 8.9 8.9 0 0 1-.56-2.9 84.53 84.53 0 0 1-.07-4.95c0-3.26.01-3.67.07-4.95.06-1.28.26-2.15.56-2.91.3-.79.72-1.46 1.38-2.13a5.88 5.88 0 0 1 2.13-1.38 8.9 8.9 0 0 1 2.91-.56c1.28-.06 1.7-.07 4.95-.07zm0 2.16c-3.2 0-3.58.01-4.85.07-1.17.05-1.8.25-2.23.41-.56.22-.96.48-1.38.9-.42.42-.68.82-.9 1.38a6.61 6.61 0 0 0-.41 2.23 88.08 88.08 0 0 0-.07 4.85c0 3.2.01 3.59.07 4.85.05 1.17.25 1.8.41 2.23.22.56.48.96.9 1.38.42.42.82.68 1.38.9.43.16 1.06.36 2.23.41 1.27.06 1.65.07 4.85.07 3.2 0 3.59 0 4.85-.07a6.61 6.61 0 0 0 2.23-.41c.56-.22.96-.48 1.38-.9.42-.42.68-.82.9-1.38.16-.42.36-1.06.41-2.23.06-1.26.07-1.64.07-4.85 0-3.2 0-3.58-.07-4.85a6.61 6.61 0 0 0-.41-2.23 3.74 3.74 0 0 0-.9-1.38 3.74 3.74 0 0 0-1.38-.9 6.61 6.61 0 0 0-2.23-.41 88.08 88.08 0 0 0-4.85-.07zm0 13.84a4 4 0 1 0 0-8 4 4 0 0 0 0 8zm0-10.16a6.16 6.16 0 1 1 0 12.32 6.16 6.16 0 0 1 0-12.32zm7.85-.24a1.44 1.44 0 1 1-2.88 0 1.44 1.44 0 0 1 2.88 0z"/></defs><use xlink:href="#a" transform="translate(-1055 -4499)"/></svg>