<svg version="1.1" baseProfile="full" xmlns="http://www.w3.org/2000/svg" xmlns:xlink="http://www.w3.org/1999/xlink" xmlns:ev="http://www.w3.org/2001/xml-events" xml:space="preserve" x="0px" y="0px" width="40px" height="40px" viewBox="0 0 40 40" preserveAspectRatio="none" shape-rendering="geometricPrecision">"<path fill="#000000" d="M10 14c0-.552.455-1 .992-1h18.016c.548 0 .992.444.992 1 0 .552-.455 1-.992 1H10.992A.993.993 0 0 1 10 14zm0 6c0-.552.455-1 .992-1h18.016c.548 0 .992.444.992 1 0 .552-.455 1-.992 1H10.992A.993.993 0 0 1 10 20zm0 6c0-.552.445-1 1-1h14c.552 0 1 .444 1 1 0 .552-.445 1-1 1H11c-.552 0-1-.444-1-1z"/></svg>