<svg version="1.1" baseProfile="full" xmlns="http://www.w3.org/2000/svg" xmlns:xlink="http://www.w3.org/1999/xlink" xmlns:ev="http://www.w3.org/2001/xml-events" xml:space="preserve" x="0px" y="0px" width="40px" height="40px" viewBox="0 0 40 40" preserveAspectRatio="none" shape-rendering="geometricPrecision">"<path fill="#ffffff" d="M11.8 29a.8.8 0 1 1-1.6 0c0-2.819 2.104-4.762 5.05-5.67.43-.132.852-.144 1.291-.055.24.049.476.124.756.235.151.06.676.283.68.285.757.314 1.31.454 2.023.454.708 0 1.302-.148 2.093-.466l.61-.252c.247-.1.44-.169.629-.222.544-.153 1.028-.155 1.421.022 2.555.807 5.047 3.361 5.047 5.669a.8.8 0 1 1-1.6 0c0-1.503-1.973-3.525-4.009-4.173-.185-.081-.26-.06-1.5.44-.964.388-1.743.582-2.69.582-.958 0-1.703-.188-2.638-.577-.02-.008-.526-.223-.654-.274a2.922 2.922 0 0 0-.486-.155.963.963 0 0 0-.501.017C13.37 25.584 11.8 27.034 11.8 29zM20 10.2c2.843 0 4.8 2.15 4.8 5.81 0 3.565-2.136 5.79-4.8 5.79-2.674 0-4.826-2.233-4.8-5.796.026-3.662 1.967-5.804 4.8-5.804zm0 1.6c-1.914 0-3.18 1.397-3.2 4.216C16.78 18.7 18.225 20.2 20 20.2c1.766 0 3.2-1.495 3.2-4.19 0-2.808-1.276-4.21-3.2-4.21z"/></svg>