<svg version="1.1" baseProfile="full" xmlns="http://www.w3.org/2000/svg" xmlns:xlink="http://www.w3.org/1999/xlink" xmlns:ev="http://www.w3.org/2001/xml-events" xml:space="preserve" x="0px" y="0px" width="215px" height="158px"  viewBox="0 0 215 158" preserveAspectRatio="none" shape-rendering="geometricPrecision"><path xmlns="http://www.w3.org/2000/svg" fill="#FFF" d="M29.3913606,2.49173684 L1.63753626,106.167264 C1.46516197,106.811175 1.84396255,107.470216 2.48241245,107.641448 L184.140552,156.362111 C184.77536,156.532366 185.437002,156.149421 185.608639,155.508263 L213.362464,51.8327356 C213.534838,51.1888245 213.156037,50.5297839 212.517588,50.3585518 L30.8594482,1.63788928 C30.2246399,1.46763385 29.5629979,1.85057882 29.3913606,2.49173684 Z M27.8501816,2.07839307 C28.249766,0.585729474 29.7859677,-0.30339296 31.2724059,0.0952693366 L212.930545,48.8159318 C214.421222,49.2157308 215.303805,50.7512571 214.903643,52.2460794 L187.149818,155.921607 C186.750234,157.414271 185.214032,158.303393 183.727594,157.904731 L2.06945479,109.184068 C0.578778325,108.784269 -0.303804958,107.248743 0.0963572983,105.753921 L27.8501816,2.07839307 Z M209.798276,52.0031786 C210.200494,51.823158 210.672356,52.0035897 210.852208,52.4061841 C211.03206,52.8087785 210.851797,53.2810812 210.449579,53.4611018 L105.005831,100.654486 C102.078032,101.964879 98.2804573,100.925381 96.4334133,98.297903 L31.0942865,5.35093608 C30.8407432,4.99026284 30.9273161,4.49214983 31.2876525,4.23836954 C31.6479888,3.98458924 32.1456365,4.07124309 32.3991797,4.43191634 L97.7383066,97.3788833 C99.1454203,99.3805469 102.122635,100.19549 104.354527,99.196563 L209.798276,52.0031786 Z M5.6211919,104.052725 L75.8743386,72.0659812 C76.2755862,71.8838032 76.7484081,72.0616983 76.9304159,72.4633211 C77.1124237,72.8649438 76.9346948,73.3382077 76.5334473,73.5203857 L6.28030052,105.507129 C5.87905297,105.689307 5.40623108,105.511412 5.22422325,105.109789 C5.04221543,104.708167 5.21994435,104.234903 5.6211919,104.052725 Z M182.312018,151.441155 C182.568504,151.799737 182.486011,152.298543 182.127764,152.55527 C181.769517,152.811996 181.271176,152.729426 181.01469,152.370844 L135.792669,89.1480293 C135.536182,88.7894471 135.618675,88.2906409 135.976923,88.0339145 C136.33517,87.777188 136.83351,87.8597583 137.089997,88.2183405 L182.312018,151.441155 Z" opacity=".1"/></svg>