<svg version="1.1" baseProfile="full" xmlns="http://www.w3.org/2000/svg" xmlns:xlink="http://www.w3.org/1999/xlink" xmlns:ev="http://www.w3.org/2001/xml-events" xml:space="preserve" x="0px" y="0px" width="160px" height="139px"  viewBox="0 0 160 139" preserveAspectRatio="none" shape-rendering="geometricPrecision"><path xmlns="http://www.w3.org/2000/svg" fill="#FFF" d="M0.376250269,71.4260324 C-0.397106388,70.0846163 0.0607847834,68.3641535 1.3916356,67.5946833 L117.656495,0.372762929 C118.991404,-0.399053403 120.704442,0.0669683049 121.477477,1.4078255 L159.62375,67.5739676 C160.397106,68.9153837 159.939215,70.6358465 158.608364,71.4053167 L42.3435049,138.627237 C41.0085963,139.399053 39.2955579,138.933032 38.5225235,137.592174 L0.376250269,71.4260324 Z M1.75874079,70.6267052 L39.905014,136.792847 C40.2366291,137.368046 40.9728105,137.56832 41.542964,137.238669 L157.807824,70.0167485 C158.375237,69.6886816 158.572436,68.947734 158.241259,68.3732948 L120.094986,2.20715273 C119.763371,1.63195393 119.02719,1.43168024 118.457036,1.76133112 L2.19217649,68.9832515 C1.62476258,69.3113184 1.42756367,70.052266 1.75874079,70.6267052 Z M118.073258,3.43432114 C118.230164,3.02122044 118.691599,2.81476092 119.103901,2.97318089 C119.516204,3.13160085 119.723244,3.59490989 119.566338,4.00801058 L89.9740148,81.9183865 C89.1142556,84.1819521 86.5491393,85.6474281 84.1650049,85.2285042 L3.56973404,71.0668514 C3.13501576,70.9904656 2.84344918,70.5752639 2.91850185,70.1394723 C2.99355452,69.7036808 3.40680553,69.4123248 3.8415238,69.4887105 L84.4367946,83.6503633 C86.0666367,83.9367481 87.8926499,82.8935289 88.4809352,81.3446971 L118.073258,3.43432114 Z M40.7302141,134.198403 L59.2401606,82.8304639 C59.3948522,82.4165192 59.8551695,82.2075769 60.2683079,82.3637782 C60.6814464,82.5199795 60.8909589,82.9821741 60.7362672,83.3961188 L42.2263208,134.764058 C42.0716291,135.178003 41.6113118,135.386945 41.1981734,135.230744 C40.785035,135.074543 40.5755225,134.612348 40.7302141,134.198403 Z M155.688887,67.8048165 C156.124206,67.8776296 156.419148,68.2904306 156.347659,68.7268333 C156.27617,69.163236 155.865322,69.4579836 155.430003,69.3851705 L100.458068,60.2740799 C100.022749,60.2012668 99.7278069,59.7884658 99.7992957,59.3520631 C99.8707846,58.9156604 100.281633,58.6209128 100.716952,58.6937259 L155.688887,67.8048165 Z" opacity=".1"/></svg>